<mxfile host="65bd71144e">
    <diagram id="Ir0NtG7bJPNsTs--VWmk" name="Page-1">
        <mxGraphModel dx="2543" dy="1227" grid="1" gridSize="10" guides="1" tooltips="1" connect="1" arrows="1" fold="1" page="1" pageScale="1" pageWidth="850" pageHeight="1100" math="0" shadow="0">
            <root>
                <mxCell id="0"/>
                <mxCell id="1" parent="0"/>
                <mxCell id="3" value="Academic &lt;br&gt;Advisor" style="shape=umlActor;verticalLabelPosition=bottom;verticalAlign=top;html=1;outlineConnect=0;" parent="1" vertex="1">
                    <mxGeometry x="-610" y="680" width="30" height="60" as="geometry"/>
                </mxCell>
                <mxCell id="4" value="Staff" style="shape=umlActor;verticalLabelPosition=bottom;verticalAlign=top;html=1;outlineConnect=0;" parent="1" vertex="1">
                    <mxGeometry x="670" y="1130" width="30" height="60" as="geometry"/>
                </mxCell>
                <mxCell id="5" value="" style="swimlane;startSize=0;" parent="1" vertex="1">
                    <mxGeometry x="-195" y="500" width="520" height="190" as="geometry"/>
                </mxCell>
                <mxCell id="6" value="UC006:View academic report" style="ellipse;whiteSpace=wrap;html=1;" parent="5" vertex="1">
                    <mxGeometry x="45" y="10" width="120" height="80" as="geometry"/>
                </mxCell>
                <mxCell id="7" value="UC008:Download academic report" style="ellipse;whiteSpace=wrap;html=1;" parent="5" vertex="1">
                    <mxGeometry x="205" y="100" width="120" height="80" as="geometry"/>
                </mxCell>
                <mxCell id="8" value="UC007:Manage academic report" style="ellipse;whiteSpace=wrap;html=1;" parent="5" vertex="1">
                    <mxGeometry x="375" y="45" width="120" height="80" as="geometry"/>
                </mxCell>
                <mxCell id="9" value="UC009:File complaint academic report" style="ellipse;whiteSpace=wrap;html=1;" parent="5" vertex="1">
                    <mxGeometry x="45" y="100" width="120" height="80" as="geometry"/>
                </mxCell>
                <mxCell id="10" value="" style="endArrow=classic;html=1;rounded=0;exitX=0;exitY=0.5;exitDx=0;exitDy=0;entryX=1;entryY=0.5;entryDx=0;entryDy=0;" parent="5" source="8" target="6" edge="1">
                    <mxGeometry relative="1" as="geometry">
                        <mxPoint x="185" y="140" as="sourcePoint"/>
                        <mxPoint x="285" y="140" as="targetPoint"/>
                    </mxGeometry>
                </mxCell>
                <mxCell id="11" value="&amp;lt;&amp;lt;include&amp;gt;&amp;gt;" style="edgeLabel;resizable=0;html=1;align=center;verticalAlign=middle;" parent="10" connectable="0" vertex="1">
                    <mxGeometry relative="1" as="geometry"/>
                </mxCell>
                <mxCell id="12" value="" style="endArrow=classic;html=1;rounded=0;exitX=0;exitY=0.5;exitDx=0;exitDy=0;entryX=1;entryY=0.5;entryDx=0;entryDy=0;" parent="5" source="8" target="7" edge="1">
                    <mxGeometry relative="1" as="geometry">
                        <mxPoint x="365" y="145" as="sourcePoint"/>
                        <mxPoint x="175" y="60" as="targetPoint"/>
                    </mxGeometry>
                </mxCell>
                <mxCell id="13" value="&amp;lt;&amp;lt;include&amp;gt;&amp;gt;" style="edgeLabel;resizable=0;html=1;align=center;verticalAlign=middle;" parent="12" connectable="0" vertex="1">
                    <mxGeometry relative="1" as="geometry"/>
                </mxCell>
                <mxCell id="14" value="" style="endArrow=classic;html=1;rounded=0;exitX=1;exitY=0.5;exitDx=0;exitDy=0;entryX=0;entryY=0.5;entryDx=0;entryDy=0;" parent="5" source="6" target="7" edge="1">
                    <mxGeometry relative="1" as="geometry">
                        <mxPoint x="385" y="95" as="sourcePoint"/>
                        <mxPoint x="330" y="140" as="targetPoint"/>
                    </mxGeometry>
                </mxCell>
                <mxCell id="15" value="&amp;lt;&amp;lt;include&amp;gt;&amp;gt;" style="edgeLabel;resizable=0;html=1;align=center;verticalAlign=middle;" parent="14" connectable="0" vertex="1">
                    <mxGeometry relative="1" as="geometry"/>
                </mxCell>
                <mxCell id="16" value="Aunthentication Subsystem" style="text;html=1;align=center;verticalAlign=middle;resizable=0;points=[];autosize=1;strokeColor=default;fillColor=none;" parent="1" vertex="1">
                    <mxGeometry x="-195" y="30" width="170" height="30" as="geometry"/>
                </mxCell>
                <mxCell id="17" value="" style="swimlane;startSize=0;" parent="1" vertex="1">
                    <mxGeometry x="-195" y="60" width="520" height="122" as="geometry"/>
                </mxCell>
                <mxCell id="18" value="UC001:Sign In &lt;br&gt;/ Log In" style="ellipse;whiteSpace=wrap;html=1;" parent="17" vertex="1">
                    <mxGeometry x="115" y="12" width="120" height="80" as="geometry"/>
                </mxCell>
                <mxCell id="19" value="UC002:Password" style="ellipse;whiteSpace=wrap;html=1;" parent="17" vertex="1">
                    <mxGeometry x="305" y="12" width="120" height="80" as="geometry"/>
                </mxCell>
                <mxCell id="20" value="" style="endArrow=classic;html=1;rounded=0;exitX=1;exitY=0.5;exitDx=0;exitDy=0;entryX=0;entryY=0.5;entryDx=0;entryDy=0;" parent="17" source="18" target="19" edge="1">
                    <mxGeometry relative="1" as="geometry">
                        <mxPoint x="245" y="110" as="sourcePoint"/>
                        <mxPoint x="345" y="110" as="targetPoint"/>
                    </mxGeometry>
                </mxCell>
                <mxCell id="21" value="&amp;lt;&amp;lt;Include&amp;gt;&amp;gt;" style="edgeLabel;resizable=0;html=1;align=center;verticalAlign=middle;" parent="20" connectable="0" vertex="1">
                    <mxGeometry relative="1" as="geometry"/>
                </mxCell>
                <mxCell id="22" value="Account Subsystem" style="text;html=1;align=center;verticalAlign=middle;resizable=0;points=[];autosize=1;strokeColor=default;fillColor=none;" parent="1" vertex="1">
                    <mxGeometry x="-195" y="212" width="130" height="30" as="geometry"/>
                </mxCell>
                <mxCell id="23" value="" style="swimlane;startSize=0;" parent="1" vertex="1">
                    <mxGeometry x="-195" y="1460" width="629" height="270" as="geometry"/>
                </mxCell>
                <mxCell id="24" value="" style="ellipse;whiteSpace=wrap;html=1;" parent="23" vertex="1">
                    <mxGeometry x="470" y="-542" height="80" as="geometry"/>
                </mxCell>
                <mxCell id="25" value="UC021:Get Notification" style="ellipse;whiteSpace=wrap;html=1;" parent="23" vertex="1">
                    <mxGeometry x="80" y="10" width="120" height="80" as="geometry"/>
                </mxCell>
                <mxCell id="26" value="UC022:Edit Notification Setting" style="ellipse;whiteSpace=wrap;html=1;" parent="23" vertex="1">
                    <mxGeometry x="89" y="130" width="120" height="80" as="geometry"/>
                </mxCell>
                <mxCell id="27" value="UC023:View Notifiaction" style="ellipse;whiteSpace=wrap;html=1;" parent="23" vertex="1">
                    <mxGeometry x="259" y="90" width="120" height="80" as="geometry"/>
                </mxCell>
                <mxCell id="28" value="UC024:Manage Notification" style="ellipse;whiteSpace=wrap;html=1;" parent="23" vertex="1">
                    <mxGeometry x="439" y="95" width="120" height="80" as="geometry"/>
                </mxCell>
                <mxCell id="29" value="" style="endArrow=classic;html=1;rounded=0;exitX=1;exitY=0.5;exitDx=0;exitDy=0;entryX=0;entryY=0.5;entryDx=0;entryDy=0;" parent="23" source="25" target="27" edge="1">
                    <mxGeometry relative="1" as="geometry">
                        <mxPoint x="377.03999999999996" y="269.9999999999998" as="sourcePoint"/>
                        <mxPoint x="140" y="110" as="targetPoint"/>
                    </mxGeometry>
                </mxCell>
                <mxCell id="30" value="&amp;lt;&amp;lt;Include&amp;gt;&amp;gt;" style="edgeLabel;resizable=0;html=1;align=center;verticalAlign=middle;" parent="29" connectable="0" vertex="1">
                    <mxGeometry relative="1" as="geometry"/>
                </mxCell>
                <mxCell id="31" value="Summary Subsystem" style="text;html=1;align=center;verticalAlign=middle;resizable=0;points=[];autosize=1;strokeColor=default;fillColor=none;" parent="1" vertex="1">
                    <mxGeometry x="-195" y="1760" width="140" height="30" as="geometry"/>
                </mxCell>
                <mxCell id="32" value="" style="swimlane;startSize=0;" parent="1" vertex="1">
                    <mxGeometry x="-195" y="242" width="515" height="200" as="geometry"/>
                </mxCell>
                <mxCell id="33" value="UC003:View students's personal info" style="ellipse;whiteSpace=wrap;html=1;" parent="32" vertex="1">
                    <mxGeometry x="45" y="20" width="120" height="80" as="geometry"/>
                </mxCell>
                <mxCell id="34" value="UC005:View academic advisor personal info" style="ellipse;whiteSpace=wrap;html=1;" parent="32" vertex="1">
                    <mxGeometry x="65" y="108" width="120" height="80" as="geometry"/>
                </mxCell>
                <mxCell id="35" value="UC004:Manage students's personal info" style="ellipse;whiteSpace=wrap;html=1;" parent="32" vertex="1">
                    <mxGeometry x="345" y="28" width="120" height="80" as="geometry"/>
                </mxCell>
                <mxCell id="36" value="" style="endArrow=classic;html=1;rounded=0;entryX=1;entryY=0.5;entryDx=0;entryDy=0;exitX=0;exitY=0.5;exitDx=0;exitDy=0;" parent="32" source="35" target="33" edge="1">
                    <mxGeometry relative="1" as="geometry">
                        <mxPoint x="365" y="403" as="sourcePoint"/>
                        <mxPoint x="175" y="318" as="targetPoint"/>
                    </mxGeometry>
                </mxCell>
                <mxCell id="37" value="&amp;lt;&amp;lt;include&amp;gt;&amp;gt;" style="edgeLabel;resizable=0;html=1;align=center;verticalAlign=middle;" parent="36" connectable="0" vertex="1">
                    <mxGeometry relative="1" as="geometry"/>
                </mxCell>
                <mxCell id="38" value="" style="endArrow=classic;html=1;rounded=0;entryX=1;entryY=0.5;entryDx=0;entryDy=0;exitX=0;exitY=0.5;exitDx=0;exitDy=0;" parent="32" source="35" target="34" edge="1">
                    <mxGeometry relative="1" as="geometry">
                        <mxPoint x="355" y="78" as="sourcePoint"/>
                        <mxPoint x="175" y="70" as="targetPoint"/>
                    </mxGeometry>
                </mxCell>
                <mxCell id="39" value="&amp;lt;&amp;lt;include&amp;gt;&amp;gt;" style="edgeLabel;resizable=0;html=1;align=center;verticalAlign=middle;" parent="38" connectable="0" vertex="1">
                    <mxGeometry relative="1" as="geometry"/>
                </mxCell>
                <mxCell id="40" value="Report Subsystem" style="text;html=1;align=center;verticalAlign=middle;resizable=0;points=[];autosize=1;strokeColor=default;fillColor=none;" parent="1" vertex="1">
                    <mxGeometry x="-195" y="470" width="120" height="30" as="geometry"/>
                </mxCell>
                <mxCell id="41" value="" style="swimlane;startSize=0;" parent="1" vertex="1">
                    <mxGeometry x="-195" y="1790" width="629" height="210" as="geometry"/>
                </mxCell>
                <mxCell id="42" value="UC025:View student's academic dashboard" style="ellipse;whiteSpace=wrap;html=1;" parent="41" vertex="1">
                    <mxGeometry x="25" y="60" width="120" height="80" as="geometry"/>
                </mxCell>
                <mxCell id="43" value="UC026:Summary Student's dashboard" style="ellipse;whiteSpace=wrap;html=1;" parent="41" vertex="1">
                    <mxGeometry x="260" y="110" width="120" height="80" as="geometry"/>
                </mxCell>
                <mxCell id="44" value="UC027:Manage Students' Academic Summary" style="ellipse;whiteSpace=wrap;html=1;" parent="41" vertex="1">
                    <mxGeometry x="489" y="20" width="120" height="80" as="geometry"/>
                </mxCell>
                <mxCell id="45" value="" style="endArrow=classic;html=1;rounded=0;exitX=0;exitY=0.5;exitDx=0;exitDy=0;entryX=1;entryY=0.5;entryDx=0;entryDy=0;" parent="41" source="44" target="42" edge="1">
                    <mxGeometry relative="1" as="geometry">
                        <mxPoint x="438.03999999999996" y="113.23999999999978" as="sourcePoint"/>
                        <mxPoint x="190" y="50" as="targetPoint"/>
                    </mxGeometry>
                </mxCell>
                <mxCell id="46" value="&amp;lt;&amp;lt;Include&amp;gt;&amp;gt;" style="edgeLabel;resizable=0;html=1;align=center;verticalAlign=middle;" parent="45" connectable="0" vertex="1">
                    <mxGeometry relative="1" as="geometry"/>
                </mxCell>
                <mxCell id="47" value="" style="endArrow=classic;html=1;rounded=0;exitX=0;exitY=0.5;exitDx=0;exitDy=0;entryX=1;entryY=0.5;entryDx=0;entryDy=0;" parent="41" source="44" target="43" edge="1">
                    <mxGeometry relative="1" as="geometry">
                        <mxPoint x="329" y="-20" as="sourcePoint"/>
                        <mxPoint x="429" y="-20" as="targetPoint"/>
                    </mxGeometry>
                </mxCell>
                <mxCell id="48" value="&amp;lt;&amp;lt;Include&amp;gt;&amp;gt;" style="edgeLabel;resizable=0;html=1;align=center;verticalAlign=middle;" parent="47" connectable="0" vertex="1">
                    <mxGeometry relative="1" as="geometry"/>
                </mxCell>
                <mxCell id="49" value="" style="endArrow=classic;html=1;rounded=0;entryX=0;entryY=0.5;entryDx=0;entryDy=0;exitX=0.5;exitY=1;exitDx=0;exitDy=0;" parent="41" source="42" target="43" edge="1">
                    <mxGeometry relative="1" as="geometry">
                        <mxPoint x="130" y="70" as="sourcePoint"/>
                        <mxPoint x="230" y="150" as="targetPoint"/>
                    </mxGeometry>
                </mxCell>
                <mxCell id="50" value="&amp;lt;&amp;lt;Include&amp;gt;&amp;gt;" style="edgeLabel;resizable=0;html=1;align=center;verticalAlign=middle;" parent="49" connectable="0" vertex="1">
                    <mxGeometry relative="1" as="geometry"/>
                </mxCell>
                <mxCell id="51" value="" style="swimlane;startSize=0;" parent="1" vertex="1">
                    <mxGeometry x="-195" y="1030" width="627.5" height="360" as="geometry"/>
                </mxCell>
                <mxCell id="52" value="UC014: View Appointment Slot" style="ellipse;whiteSpace=wrap;html=1;" parent="51" vertex="1">
                    <mxGeometry x="29" y="20" width="120" height="80" as="geometry"/>
                </mxCell>
                <mxCell id="53" value="UC015: Manage Appointment Slot" style="ellipse;whiteSpace=wrap;html=1;" parent="51" vertex="1">
                    <mxGeometry x="489" y="30" width="120" height="80" as="geometry"/>
                </mxCell>
                <mxCell id="54" value="UC017: Download Appointment Slot" style="ellipse;whiteSpace=wrap;html=1;" parent="51" vertex="1">
                    <mxGeometry x="45" y="185" width="120" height="80" as="geometry"/>
                </mxCell>
                <mxCell id="55" value="UC018: View Calendar&amp;nbsp;" style="ellipse;whiteSpace=wrap;html=1;" parent="51" vertex="1">
                    <mxGeometry x="125" y="250" width="120" height="80" as="geometry"/>
                </mxCell>
                <mxCell id="56" value="UC020: Manage Calendar" style="ellipse;whiteSpace=wrap;html=1;" parent="51" vertex="1">
                    <mxGeometry x="489" y="150" width="120" height="80" as="geometry"/>
                </mxCell>
                <mxCell id="57" value="UC016: Edit Appointment Slot" style="ellipse;whiteSpace=wrap;html=1;" parent="51" vertex="1">
                    <mxGeometry x="319" y="160" width="120" height="80" as="geometry"/>
                </mxCell>
                <mxCell id="58" value="UC019: Edit Calendar&amp;nbsp;" style="ellipse;whiteSpace=wrap;html=1;" parent="51" vertex="1">
                    <mxGeometry x="369" y="265" width="120" height="80" as="geometry"/>
                </mxCell>
                <mxCell id="59" value="&amp;lt;&amp;lt;include&amp;gt;&amp;gt;" style="endArrow=classic;html=1;rounded=0;exitX=0;exitY=0.5;exitDx=0;exitDy=0;entryX=1;entryY=0.5;entryDx=0;entryDy=0;" parent="51" source="53" target="57" edge="1">
                    <mxGeometry relative="1" as="geometry">
                        <mxPoint x="489" y="110" as="sourcePoint"/>
                        <mxPoint x="169" y="90" as="targetPoint"/>
                    </mxGeometry>
                </mxCell>
                <mxCell id="60" value="&amp;lt;&amp;lt;include&amp;gt;&amp;gt;" style="endArrow=classic;html=1;rounded=0;exitX=0;exitY=0.5;exitDx=0;exitDy=0;entryX=1;entryY=0.5;entryDx=0;entryDy=0;" parent="51" source="57" target="52" edge="1">
                    <mxGeometry relative="1" as="geometry">
                        <mxPoint x="469" y="190" as="sourcePoint"/>
                        <mxPoint x="149" y="170" as="targetPoint"/>
                    </mxGeometry>
                </mxCell>
                <mxCell id="61" value="&amp;lt;&amp;lt;include&amp;gt;&amp;gt;" style="endArrow=classic;html=1;rounded=0;exitX=0.5;exitY=1;exitDx=0;exitDy=0;entryX=1;entryY=0.5;entryDx=0;entryDy=0;" parent="51" source="57" target="55" edge="1">
                    <mxGeometry relative="1" as="geometry">
                        <mxPoint x="530" y="280" as="sourcePoint"/>
                        <mxPoint x="210" y="260" as="targetPoint"/>
                    </mxGeometry>
                </mxCell>
                <mxCell id="62" value="&amp;lt;&amp;lt;include&amp;gt;&amp;gt;" style="endArrow=classic;html=1;rounded=0;exitX=1;exitY=0.5;exitDx=0;exitDy=0;entryX=0;entryY=0.5;entryDx=0;entryDy=0;" parent="51" source="55" target="58" edge="1">
                    <mxGeometry relative="1" as="geometry">
                        <mxPoint x="309" y="260" as="sourcePoint"/>
                        <mxPoint x="249" y="310" as="targetPoint"/>
                    </mxGeometry>
                </mxCell>
                <mxCell id="63" value="" style="endArrow=classic;html=1;rounded=0;exitX=0;exitY=0.5;exitDx=0;exitDy=0;entryX=1;entryY=0.5;entryDx=0;entryDy=0;" parent="51" source="56" target="58" edge="1">
                    <mxGeometry width="50" height="50" relative="1" as="geometry">
                        <mxPoint x="259" y="340" as="sourcePoint"/>
                        <mxPoint x="309" y="290" as="targetPoint"/>
                    </mxGeometry>
                </mxCell>
                <mxCell id="64" value="&amp;lt;&amp;lt;include&amp;gt;&amp;gt;" style="edgeLabel;html=1;align=center;verticalAlign=middle;resizable=0;points=[];" parent="63" connectable="0" vertex="1">
                    <mxGeometry x="-0.2085" relative="1" as="geometry">
                        <mxPoint as="offset"/>
                    </mxGeometry>
                </mxCell>
                <mxCell id="65" value="&amp;lt;&amp;lt;include&amp;gt;&amp;gt;" style="endArrow=classic;html=1;rounded=0;exitX=0;exitY=0.5;exitDx=0;exitDy=0;entryX=1;entryY=0.5;entryDx=0;entryDy=0;" parent="51" source="53" target="52" edge="1">
                    <mxGeometry relative="1" as="geometry">
                        <mxPoint x="370" y="-60" as="sourcePoint"/>
                        <mxPoint x="470" y="-60" as="targetPoint"/>
                    </mxGeometry>
                </mxCell>
                <mxCell id="66" value="&amp;lt;&amp;lt;include&amp;gt;&amp;gt;" style="endArrow=classic;html=1;rounded=0;entryX=1;entryY=0.5;entryDx=0;entryDy=0;exitX=0;exitY=0.5;exitDx=0;exitDy=0;" parent="51" source="53" target="54" edge="1">
                    <mxGeometry relative="1" as="geometry">
                        <mxPoint x="465" y="150" as="sourcePoint"/>
                        <mxPoint x="154" y="140" as="targetPoint"/>
                    </mxGeometry>
                </mxCell>
                <mxCell id="67" value="Student&lt;br&gt;" style="shape=umlActor;verticalLabelPosition=bottom;verticalAlign=top;html=1;outlineConnect=0;" parent="1" vertex="1">
                    <mxGeometry x="-620" y="1420" width="30" height="60" as="geometry"/>
                </mxCell>
                <mxCell id="68" value="" style="swimlane;startSize=0;" parent="1" vertex="1">
                    <mxGeometry x="-195" y="760" width="520" height="200" as="geometry"/>
                </mxCell>
                <mxCell id="69" value="" style="ellipse;whiteSpace=wrap;html=1;" parent="68" vertex="1">
                    <mxGeometry x="430" y="-610" height="80" as="geometry"/>
                </mxCell>
                <mxCell id="70" value="UC011:Download timetable" style="ellipse;whiteSpace=wrap;html=1;" parent="68" vertex="1">
                    <mxGeometry x="280" y="20" width="120" height="80" as="geometry"/>
                </mxCell>
                <mxCell id="71" value="UC012:Manage timetable" style="ellipse;whiteSpace=wrap;html=1;" parent="68" vertex="1">
                    <mxGeometry x="370" y="100" width="120" height="80" as="geometry"/>
                </mxCell>
                <mxCell id="72" value="UC013:Edit timetable" style="ellipse;whiteSpace=wrap;html=1;" parent="68" vertex="1">
                    <mxGeometry x="80" y="110" width="120" height="80" as="geometry"/>
                </mxCell>
                <mxCell id="73" value="UC010:View timetable" style="ellipse;whiteSpace=wrap;html=1;" parent="68" vertex="1">
                    <mxGeometry x="80" y="20" width="120" height="80" as="geometry"/>
                </mxCell>
                <mxCell id="74" value="&amp;lt;&amp;lt;include&amp;gt;&amp;gt;" style="endArrow=classic;html=1;rounded=0;exitX=1;exitY=0.5;exitDx=0;exitDy=0;entryX=0;entryY=0.5;entryDx=0;entryDy=0;" parent="68" source="73" target="70" edge="1">
                    <mxGeometry relative="1" as="geometry">
                        <mxPoint x="505" y="229" as="sourcePoint"/>
                        <mxPoint x="185" y="209" as="targetPoint"/>
                    </mxGeometry>
                </mxCell>
                <mxCell id="75" value="&amp;lt;&amp;lt;include&amp;gt;&amp;gt;" style="endArrow=classic;html=1;rounded=0;entryX=1;entryY=0;entryDx=0;entryDy=0;exitX=1;exitY=1;exitDx=0;exitDy=0;" parent="68" source="73" target="72" edge="1">
                    <mxGeometry relative="1" as="geometry">
                        <mxPoint x="205" y="60" as="sourcePoint"/>
                        <mxPoint x="290" y="70" as="targetPoint"/>
                    </mxGeometry>
                </mxCell>
                <mxCell id="76" value="&amp;lt;&amp;lt;include&amp;gt;&amp;gt;" style="endArrow=classic;html=1;rounded=0;exitX=1;exitY=0.5;exitDx=0;exitDy=0;entryX=0;entryY=1;entryDx=0;entryDy=0;" parent="68" source="72" target="70" edge="1">
                    <mxGeometry relative="1" as="geometry">
                        <mxPoint x="210" y="70" as="sourcePoint"/>
                        <mxPoint x="290" y="70" as="targetPoint"/>
                    </mxGeometry>
                </mxCell>
                <mxCell id="77" value="&amp;nbsp;Schedule Subsystem" style="text;html=1;align=center;verticalAlign=middle;resizable=0;points=[];autosize=1;strokeColor=default;fillColor=none;" parent="1" vertex="1">
                    <mxGeometry x="-195" y="730" width="140" height="30" as="geometry"/>
                </mxCell>
                <mxCell id="78" value="Notification Subsystem" style="text;html=1;align=center;verticalAlign=middle;resizable=0;points=[];autosize=1;strokeColor=default;fillColor=none;" parent="1" vertex="1">
                    <mxGeometry x="-195" y="1430" width="150" height="30" as="geometry"/>
                </mxCell>
                <mxCell id="79" value="Appointment subsystem" style="text;html=1;align=center;verticalAlign=middle;resizable=0;points=[];autosize=1;strokeColor=default;fillColor=none;" parent="1" vertex="1">
                    <mxGeometry x="-195" y="1000" width="150" height="30" as="geometry"/>
                </mxCell>
                <mxCell id="80" value="" style="endArrow=classic;html=1;rounded=0;entryX=0;entryY=0.5;entryDx=0;entryDy=0;exitX=0.5;exitY=0.5;exitDx=0;exitDy=0;exitPerimeter=0;" parent="1" source="3" target="34" edge="1">
                    <mxGeometry width="50" height="50" relative="1" as="geometry">
                        <mxPoint x="-500" y="970" as="sourcePoint"/>
                        <mxPoint x="240" y="550" as="targetPoint"/>
                        <Array as="points">
                            <mxPoint x="-230" y="390"/>
                        </Array>
                    </mxGeometry>
                </mxCell>
                <mxCell id="81" value="" style="endArrow=classic;html=1;rounded=0;exitX=0.5;exitY=0.5;exitDx=0;exitDy=0;exitPerimeter=0;entryX=0;entryY=0.5;entryDx=0;entryDy=0;" parent="1" source="67" target="33" edge="1">
                    <mxGeometry width="50" height="50" relative="1" as="geometry">
                        <mxPoint x="330" y="920" as="sourcePoint"/>
                        <mxPoint x="380" y="870" as="targetPoint"/>
                        <Array as="points">
                            <mxPoint x="-290" y="302"/>
                        </Array>
                    </mxGeometry>
                </mxCell>
                <mxCell id="82" value="" style="endArrow=classic;html=1;rounded=0;entryX=0;entryY=0.5;entryDx=0;entryDy=0;exitX=0.5;exitY=0.5;exitDx=0;exitDy=0;exitPerimeter=0;" parent="1" source="67" target="73" edge="1">
                    <mxGeometry width="50" height="50" relative="1" as="geometry">
                        <mxPoint x="-510" y="1170" as="sourcePoint"/>
                        <mxPoint x="80" y="900" as="targetPoint"/>
                        <Array as="points">
                            <mxPoint x="-210" y="820"/>
                        </Array>
                    </mxGeometry>
                </mxCell>
                <mxCell id="83" value="" style="endArrow=classic;html=1;rounded=0;exitX=0.5;exitY=0.5;exitDx=0;exitDy=0;exitPerimeter=0;" parent="1" source="67" target="52" edge="1">
                    <mxGeometry width="50" height="50" relative="1" as="geometry">
                        <mxPoint x="-515" y="1190" as="sourcePoint"/>
                        <mxPoint x="-240" y="1140" as="targetPoint"/>
                        <Array as="points">
                            <mxPoint x="-230" y="1090"/>
                        </Array>
                    </mxGeometry>
                </mxCell>
                <mxCell id="84" value="" style="endArrow=classic;html=1;rounded=0;entryX=0;entryY=1;entryDx=0;entryDy=0;exitX=0.5;exitY=0.5;exitDx=0;exitDy=0;exitPerimeter=0;" parent="1" source="3" target="33" edge="1">
                    <mxGeometry width="50" height="50" relative="1" as="geometry">
                        <mxPoint x="-500" y="960" as="sourcePoint"/>
                        <mxPoint x="-90" y="810" as="targetPoint"/>
                        <Array as="points">
                            <mxPoint x="-250" y="330"/>
                        </Array>
                    </mxGeometry>
                </mxCell>
                <mxCell id="85" value="" style="endArrow=classic;html=1;rounded=0;exitX=0.5;exitY=0.5;exitDx=0;exitDy=0;exitPerimeter=0;entryX=0;entryY=0.5;entryDx=0;entryDy=0;" parent="1" source="3" target="6" edge="1">
                    <mxGeometry width="50" height="50" relative="1" as="geometry">
                        <mxPoint x="-490" y="970" as="sourcePoint"/>
                        <mxPoint x="-130" y="573" as="targetPoint"/>
                        <Array as="points">
                            <mxPoint x="-260" y="550"/>
                        </Array>
                    </mxGeometry>
                </mxCell>
                <mxCell id="86" value="" style="endArrow=classic;html=1;rounded=0;exitX=0.5;exitY=0.5;exitDx=0;exitDy=0;exitPerimeter=0;entryX=0.051;entryY=0.277;entryDx=0;entryDy=0;entryPerimeter=0;" parent="1" source="3" target="52" edge="1">
                    <mxGeometry width="50" height="50" relative="1" as="geometry">
                        <mxPoint x="-180" y="1280" as="sourcePoint"/>
                        <mxPoint x="-130" y="1230" as="targetPoint"/>
                        <Array as="points">
                            <mxPoint x="-220" y="1072"/>
                        </Array>
                    </mxGeometry>
                </mxCell>
                <mxCell id="87" value="" style="endArrow=classic;html=1;rounded=0;exitX=0.5;exitY=0.5;exitDx=0;exitDy=0;exitPerimeter=0;entryX=1;entryY=0.5;entryDx=0;entryDy=0;" parent="1" source="4" target="35" edge="1">
                    <mxGeometry width="50" height="50" relative="1" as="geometry">
                        <mxPoint x="280" y="690" as="sourcePoint"/>
                        <mxPoint x="330" y="640" as="targetPoint"/>
                        <Array as="points">
                            <mxPoint x="450" y="310"/>
                        </Array>
                    </mxGeometry>
                </mxCell>
                <mxCell id="88" value="" style="endArrow=classic;html=1;rounded=0;entryX=0.036;entryY=0.304;entryDx=0;entryDy=0;entryPerimeter=0;" parent="1" source="3" target="73" edge="1">
                    <mxGeometry width="50" height="50" relative="1" as="geometry">
                        <mxPoint x="-480" y="980" as="sourcePoint"/>
                        <mxPoint x="-40" y="1010" as="targetPoint"/>
                        <Array as="points">
                            <mxPoint x="-210" y="804"/>
                        </Array>
                    </mxGeometry>
                </mxCell>
                <mxCell id="89" value="" style="endArrow=classic;html=1;rounded=0;entryX=-0.007;entryY=0.582;entryDx=0;entryDy=0;entryPerimeter=0;exitX=0.5;exitY=0.5;exitDx=0;exitDy=0;exitPerimeter=0;" parent="1" source="67" target="9" edge="1">
                    <mxGeometry width="50" height="50" relative="1" as="geometry">
                        <mxPoint x="-500" y="1000" as="sourcePoint"/>
                        <mxPoint x="-170" y="890" as="targetPoint"/>
                        <Array as="points">
                            <mxPoint x="-250" y="647"/>
                        </Array>
                    </mxGeometry>
                </mxCell>
                <mxCell id="90" value="" style="endArrow=classic;html=1;rounded=0;exitX=0.5;exitY=0.5;exitDx=0;exitDy=0;exitPerimeter=0;entryX=1;entryY=0.5;entryDx=0;entryDy=0;" parent="1" source="4" target="8" edge="1">
                    <mxGeometry width="50" height="50" relative="1" as="geometry">
                        <mxPoint x="655" y="710" as="sourcePoint"/>
                        <mxPoint x="280" y="320" as="targetPoint"/>
                        <Array as="points">
                            <mxPoint x="400" y="585"/>
                        </Array>
                    </mxGeometry>
                </mxCell>
                <mxCell id="91" value="" style="endArrow=classic;html=1;rounded=0;exitX=0.5;exitY=0.5;exitDx=0;exitDy=0;exitPerimeter=0;entryX=0;entryY=0.5;entryDx=0;entryDy=0;" parent="1" source="67" target="42" edge="1">
                    <mxGeometry width="50" height="50" relative="1" as="geometry">
                        <mxPoint x="-140" y="1490" as="sourcePoint"/>
                        <mxPoint x="-240" y="2000" as="targetPoint"/>
                        <Array as="points">
                            <mxPoint x="-380" y="1890"/>
                        </Array>
                    </mxGeometry>
                </mxCell>
                <mxCell id="92" value="" style="endArrow=classic;html=1;rounded=0;exitX=0.5;exitY=0.5;exitDx=0;exitDy=0;exitPerimeter=0;entryX=0.036;entryY=0.297;entryDx=0;entryDy=0;entryPerimeter=0;" parent="1" source="3" target="42" edge="1">
                    <mxGeometry width="50" height="50" relative="1" as="geometry">
                        <mxPoint x="-590" y="710" as="sourcePoint"/>
                        <mxPoint x="-120" y="1985.7142857142858" as="targetPoint"/>
                        <Array as="points">
                            <mxPoint x="-250" y="1874"/>
                        </Array>
                    </mxGeometry>
                </mxCell>
                <mxCell id="93" value="" style="endArrow=classic;html=1;rounded=0;entryX=0;entryY=0.5;entryDx=0;entryDy=0;" parent="1" target="18" edge="1">
                    <mxGeometry width="50" height="50" relative="1" as="geometry">
                        <mxPoint x="-590" y="710" as="sourcePoint"/>
                        <mxPoint x="-70" y="120" as="targetPoint"/>
                        <Array as="points">
                            <mxPoint x="-350" y="112"/>
                        </Array>
                    </mxGeometry>
                </mxCell>
                <mxCell id="94" value="" style="endArrow=classic;html=1;rounded=0;exitX=0.5;exitY=0.5;exitDx=0;exitDy=0;exitPerimeter=0;entryX=0;entryY=1;entryDx=0;entryDy=0;" parent="1" source="67" target="18" edge="1">
                    <mxGeometry width="50" height="50" relative="1" as="geometry">
                        <mxPoint x="70" y="1310" as="sourcePoint"/>
                        <mxPoint x="120" y="1260" as="targetPoint"/>
                        <Array as="points">
                            <mxPoint x="-340" y="140"/>
                        </Array>
                    </mxGeometry>
                </mxCell>
                <mxCell id="95" value="" style="endArrow=classic;html=1;rounded=0;entryX=1;entryY=0.5;entryDx=0;entryDy=0;exitX=0.5;exitY=0.5;exitDx=0;exitDy=0;exitPerimeter=0;" parent="1" source="4" target="28" edge="1">
                    <mxGeometry width="50" height="50" relative="1" as="geometry">
                        <mxPoint x="680" y="1160" as="sourcePoint"/>
                        <mxPoint x="380" y="2087" as="targetPoint"/>
                        <Array as="points">
                            <mxPoint x="480" y="1595"/>
                        </Array>
                    </mxGeometry>
                </mxCell>
                <mxCell id="96" value="" style="endArrow=classic;html=1;rounded=0;entryX=1;entryY=1;entryDx=0;entryDy=0;exitX=0.5;exitY=0.5;exitDx=0;exitDy=0;exitPerimeter=0;" parent="1" source="4" target="18" edge="1">
                    <mxGeometry width="50" height="50" relative="1" as="geometry">
                        <mxPoint x="690" y="1165.3333740234375" as="sourcePoint"/>
                        <mxPoint x="120" y="490" as="targetPoint"/>
                        <Array as="points">
                            <mxPoint x="500" y="190"/>
                            <mxPoint x="70" y="190"/>
                        </Array>
                    </mxGeometry>
                </mxCell>
                <mxCell id="97" value="" style="endArrow=classic;html=1;rounded=0;exitX=0.5;exitY=0.5;exitDx=0;exitDy=0;exitPerimeter=0;entryX=0;entryY=0.5;entryDx=0;entryDy=0;" parent="1" source="67" target="25" edge="1">
                    <mxGeometry width="50" height="50" relative="1" as="geometry">
                        <mxPoint x="-70" y="1630" as="sourcePoint"/>
                        <mxPoint x="-20" y="1580" as="targetPoint"/>
                        <Array as="points">
                            <mxPoint x="-230" y="1510"/>
                        </Array>
                    </mxGeometry>
                </mxCell>
                <mxCell id="98" value="" style="endArrow=classic;html=1;rounded=0;entryX=0;entryY=0;entryDx=0;entryDy=0;" parent="1" target="25" edge="1">
                    <mxGeometry width="50" height="50" relative="1" as="geometry">
                        <mxPoint x="-590" y="710" as="sourcePoint"/>
                        <mxPoint x="-20" y="1580" as="targetPoint"/>
                        <Array as="points">
                            <mxPoint x="-220" y="1482"/>
                        </Array>
                    </mxGeometry>
                </mxCell>
                <mxCell id="99" value="" style="endArrow=classic;html=1;rounded=0;entryX=1;entryY=0.5;entryDx=0;entryDy=0;" parent="1" target="53" edge="1">
                    <mxGeometry width="50" height="50" relative="1" as="geometry">
                        <mxPoint x="685" y="1160" as="sourcePoint"/>
                        <mxPoint x="130" y="1310" as="targetPoint"/>
                        <Array as="points">
                            <mxPoint x="500" y="1100"/>
                        </Array>
                    </mxGeometry>
                </mxCell>
                <mxCell id="100" value="" style="endArrow=classic;html=1;rounded=0;entryX=0;entryY=0.5;entryDx=0;entryDy=0;" parent="1" target="54" edge="1">
                    <mxGeometry width="50" height="50" relative="1" as="geometry">
                        <mxPoint x="-600" y="1450" as="sourcePoint"/>
                        <mxPoint x="150" y="1400" as="targetPoint"/>
                        <Array as="points">
                            <mxPoint x="-250" y="1255"/>
                        </Array>
                    </mxGeometry>
                </mxCell>
                <mxCell id="101" value="" style="endArrow=classic;html=1;rounded=0;exitX=0.5;exitY=0.5;exitDx=0;exitDy=0;entryX=1;entryY=0.5;entryDx=0;entryDy=0;exitPerimeter=0;" parent="1" source="4" target="56" edge="1">
                    <mxGeometry width="50" height="50" relative="1" as="geometry">
                        <mxPoint x="190" y="1440" as="sourcePoint"/>
                        <mxPoint x="240" y="1390" as="targetPoint"/>
                        <Array as="points">
                            <mxPoint x="500" y="1220"/>
                        </Array>
                    </mxGeometry>
                </mxCell>
                <mxCell id="102" value="" style="endArrow=classic;html=1;rounded=0;entryX=1;entryY=0.5;entryDx=0;entryDy=0;exitX=0.5;exitY=0.5;exitDx=0;exitDy=0;exitPerimeter=0;" parent="1" source="4" target="44" edge="1">
                    <mxGeometry width="50" height="50" relative="1" as="geometry">
                        <mxPoint x="160" y="1650" as="sourcePoint"/>
                        <mxPoint x="210" y="1600" as="targetPoint"/>
                        <Array as="points">
                            <mxPoint x="500" y="1850"/>
                        </Array>
                    </mxGeometry>
                </mxCell>
                <mxCell id="103" value="" style="endArrow=classic;html=1;rounded=0;entryX=1;entryY=0.5;entryDx=0;entryDy=0;" parent="1" target="71" edge="1">
                    <mxGeometry width="50" height="50" relative="1" as="geometry">
                        <mxPoint x="680" y="1160" as="sourcePoint"/>
                        <mxPoint x="120" y="960" as="targetPoint"/>
                        <Array as="points">
                            <mxPoint x="380" y="900"/>
                        </Array>
                    </mxGeometry>
                </mxCell>
                <mxCell id="104" value="" style="endArrow=classic;html=1;rounded=0;exitX=0.5;exitY=0.5;exitDx=0;exitDy=0;exitPerimeter=0;entryX=0;entryY=0.5;entryDx=0;entryDy=0;" parent="1" target="26" edge="1">
                    <mxGeometry width="50" height="50" relative="1" as="geometry">
                        <mxPoint x="-595" y="1460" as="sourcePoint"/>
                        <mxPoint x="-109" y="1650" as="targetPoint"/>
                        <Array as="points">
                            <mxPoint x="-250" y="1630"/>
                        </Array>
                    </mxGeometry>
                </mxCell>
                <mxCell id="105" value="" style="endArrow=classic;html=1;rounded=0;entryX=0;entryY=0;entryDx=0;entryDy=0;" parent="1" target="26" edge="1">
                    <mxGeometry width="50" height="50" relative="1" as="geometry">
                        <mxPoint x="-580" y="720" as="sourcePoint"/>
                        <mxPoint x="-91" y="1622" as="targetPoint"/>
                        <Array as="points">
                            <mxPoint x="-230" y="1602"/>
                        </Array>
                    </mxGeometry>
                </mxCell>
            </root>
        </mxGraphModel>
    </diagram>
</mxfile>